<svg width="24" height="24" viewBox="0 0 24 24" fill="none" xmlns="http://www.w3.org/2000/svg">
    <path d="M2 19c4-1.5 16-1.5 20 0" stroke="currentColor" stroke-width="1.2" stroke-linecap="round"/>
    <path d="M2.5 16.5V10l3.5-2.5 3.5 2.5v6.5h-7z" fill="currentColor"/>
    <rect x="5" y="11.5" width="2" height="2" fill="white"/>
    <path d="M10.5 16.5V5.5l3.5-2 3.5 2V16.5h-7z" fill="currentColor"/>
    <path d="M12 7.5h2.5v0.7H12V7.5zm0 2.5h2.5v0.7H12V10zm0 2.5h2.5v0.7H12V12.5z" fill="white"/>
    <path d="M18.5 16.5V8.5h3v8h-3z" fill="currentColor" fill-opacity="0.9"/>
    <rect x="19.2" y="10.5" width="1.5" height="0.8" fill="white"/>
</svg>
